<?xml version="1.0" encoding="iso-8859-1"?>
<!-- Uploaded to: SVG Repo, www.svgrepo.com, Generator: SVG Repo Mixer Tools -->
<svg height="800px" width="800px" version="1.1" id="Layer_1" xmlns="http://www.w3.org/2000/svg" xmlns:xlink="http://www.w3.org/1999/xlink" 
	 viewBox="0 0 512 512" xml:space="preserve">
<path style="fill:#AD4A38;" d="M368.794,364.183v-79.147H143.205v79.147c-18.119,0-32.806,14.688-32.806,32.806
	c0,18.119,14.688,32.806,32.806,32.806h225.591c11.708,0,21.984-6.133,27.789-15.363c3.178-5.053,5.017-11.034,5.017-17.445
	C401.601,378.871,386.913,364.183,368.794,364.183z"/>
<path style="fill:#FF3776;" d="M321.21,404.701H190.788C143.932,423.939,107.457,463.282,92.107,512h327.786
	C404.542,463.282,368.067,423.939,321.21,404.701z"/>
<g>
	<path style="fill:#FFD3C7;" d="M255.999,441.846c27.744,0,51.999-14.909,65.212-37.146c-20.108-8.256-42.126-12.814-65.211-12.814
		s-45.103,4.558-65.212,12.814C204,426.938,228.256,441.846,255.999,441.846z"/>
	<path style="fill:#FFD3C7;" d="M351.5,233.604c-1.032-7.897-3.034-15.493-5.87-22.672l-89.631-11.07l-88.892,11.07
		c-2.835,7.179-4.839,14.776-5.87,22.672c-11.439-5.353-24.388-3.911-32.115,4.578c-9.9,10.876-7.48,29.202,5.405,40.932
		c7.949,7.236,18.664,10.111,27.557,8.818c9.082,43.541,47.677,76.251,93.915,76.251c46.562,0,85.373-33.172,94.101-77.171
		l0.197,0.875c8.962,1.421,19.859-1.441,27.913-8.773c12.886-11.73,15.306-30.055,5.406-40.932
		C375.888,229.693,362.939,228.252,351.5,233.604z"/>
</g>
<path style="fill:#AD4A38;" d="M326.035,180.171l-70.035-22.141l-69.298,22.141c-8.358,8.831-15.053,19.258-19.596,30.761H345.63
	C341.087,199.43,334.394,189.003,326.035,180.171z"/>
<path style="fill:#FF709D;" d="M255.999,309.543c-11.637,0-22.073-7.365-25.97-18.329c-1.535-4.321,0.722-9.068,5.043-10.604
	c4.32-1.535,9.068,0.722,10.604,5.043c1.549,4.357,5.697,7.284,10.323,7.284c4.625,0,8.774-2.928,10.323-7.285
	c1.537-4.321,6.285-6.577,10.604-5.043c4.321,1.537,6.578,6.284,5.043,10.604C278.072,302.177,267.636,309.543,255.999,309.543z"/>
<g>
	<path style="fill:#991D06;" d="M226.781,258.513c-3.616,0-6.691-2.31-7.83-5.535h-11.543c-4.585,0-8.303-3.717-8.303-8.303
		s3.717-8.303,8.303-8.303h19.373c4.585,0,8.303,3.717,8.303,8.303v5.535C235.084,254.796,231.367,258.513,226.781,258.513z"/>
	<path style="fill:#991D06;" d="M285.218,258.513c-4.585,0-8.303-3.717-8.303-8.303v-5.535c0-4.585,3.717-8.303,8.303-8.303h19.373
		c4.585,0,8.303,3.717,8.303,8.303s-3.717,8.303-8.303,8.303h-11.543C291.908,256.203,288.832,258.513,285.218,258.513z"/>
</g>
<polygon style="fill:#FF709D;" points="262.899,50.159 255.999,39.089 250.047,50.159 186.333,180.171 325.666,180.171 "/>
<path style="fill:#FF3776;" d="M262.899,50.159l25.445-25.445c2.135-3.243,2.135-8.5-1.107-11.741
	c-3.241-3.243-8.499-3.243-11.741,0l-11.273,11.273V8.303c0-4.585-3.717-8.303-8.303-8.303c-4.585,0-8.303,3.717-8.303,8.303v15.943
	l-11.273-11.273c-3.243-3.243-8.5-3.243-11.741,0c-3.243,3.243-3.243,8.5,0,11.741l25.445,25.445
	C250.048,50.159,262.899,50.159,262.899,50.159z"/>
</svg>