<?xml version="1.0" encoding="iso-8859-1"?>
<!-- Uploaded to: SVG Repo, www.svgrepo.com, Generator: SVG Repo Mixer Tools -->
<svg version="1.1" id="Layer_1" xmlns="http://www.w3.org/2000/svg" xmlns:xlink="http://www.w3.org/1999/xlink" 
	 viewBox="0 0 512.003 512.003" xml:space="preserve">
<path style="fill:#FEDEA1;" d="M192,307.202c-21.171,0-38.4-17.229-38.4-38.4s17.229-38.4,38.4-38.4s38.4,17.229,38.4,38.4
	S213.171,307.202,192,307.202z"/>
<path style="fill:#FF877F;" d="M64,499.202v-230.4H8.533L256,7.502l247.467,261.299H448v230.4H64z M320,358.402
	c-21.171,0-38.4,17.229-38.4,38.4s17.229,38.4,38.4,38.4c21.171,0,38.4-17.229,38.4-38.4S341.171,358.402,320,358.402z M192,230.402
	c-21.171,0-38.4,17.229-38.4,38.4s17.229,38.4,38.4,38.4s38.4-17.229,38.4-38.4S213.171,230.402,192,230.402z"/>
<path style="fill:#FEDEA1;" d="M320,435.202c-21.171,0-38.4-17.229-38.4-38.4s17.229-38.4,38.4-38.4c21.171,0,38.4,17.229,38.4,38.4
	S341.171,435.202,320,435.202z"/>
<polygon style="fill:#A7B0C0;" points="102.4,38.402 153.6,38.402 153.6,109.894 102.4,161.094 "/>
<g>
	<path style="fill:#573A32;" d="M12.8,486.402c-7.074,0-12.8,5.726-12.8,12.8c0,7.074,5.726,12.8,12.8,12.8h486.4
		c7.074,0,12.8-5.726,12.8-12.8c0-7.074-5.726-12.8-12.8-12.8h-38.4v-204.8h25.6c10.359,0,19.686-6.238,23.654-15.804
		c3.96-9.566,1.775-20.574-5.547-27.904l-230.4-230.4C269.107,2.502,262.554,0.002,256,0.002c-6.554,0-13.107,2.5-18.099,7.501
		L166.4,78.995V51.202c0-14.14-11.46-25.6-25.6-25.6h-25.6c-14.14,0-25.6,11.46-25.6,25.6v104.593L7.501,237.894
		c-7.322,7.322-9.515,18.33-5.547,27.904c3.959,9.566,13.295,15.804,23.646,15.804h25.6v204.8H12.8z M115.2,51.202h25.6v53.393
		l-25.6,25.6V51.202z M25.6,256.002L256,25.602l230.4,230.4h-51.2v230.4H76.8v-230.4H25.6z"/>
	
		<rect x="111.184" y="319.971" transform="matrix(0.7071 -0.7071 0.7071 0.7071 -160.3249 278.4843)" style="fill:#573A32;" width="289.627" height="25.6"/>
	<path style="fill:#573A32;" d="M192,320.002c28.228,0,51.2-22.963,51.2-51.2s-22.972-51.2-51.2-51.2s-51.2,22.963-51.2,51.2
		S163.78,320.002,192,320.002z M192,243.202c14.123,0,25.6,11.486,25.6,25.6s-11.477,25.6-25.6,25.6
		c-14.123,0-25.6-11.486-25.6-25.6S177.877,243.202,192,243.202z"/>
	<path style="fill:#573A32;" d="M320,345.602c-28.22,0-51.2,22.963-51.2,51.2s22.972,51.2,51.2,51.2c28.228,0,51.2-22.963,51.2-51.2
		S348.228,345.602,320,345.602z M320,422.402c-14.123,0-25.6-11.486-25.6-25.6s11.477-25.6,25.6-25.6
		c14.123,0,25.6,11.486,25.6,25.6S334.123,422.402,320,422.402z"/>
</g>
</svg>