<?xml version="1.0" encoding="iso-8859-1"?>
<!-- Uploaded to: SVG Repo, www.svgrepo.com, Generator: SVG Repo Mixer Tools -->
<svg height="800px" width="800px" version="1.1" id="Layer_1" xmlns="http://www.w3.org/2000/svg" xmlns:xlink="http://www.w3.org/1999/xlink" 
	 viewBox="0 0 512 512" xml:space="preserve">
<path style="fill:#F4B2B0;" d="M441.189,296.771c-22.517,0-40.771-18.253-40.771-40.771s18.253-40.771,40.771-40.771
	c0.085,0,0.169,0.006,0.256,0.006v-40.292c0,0-37.029-22.818-37.463-22.818H110.578c-0.434,0-40.023,25.405-40.023,25.405v37.705
	c0.085,0,0.169-0.006,0.256-0.006c22.517,0,40.771,18.253,40.771,40.771s-18.253,40.771-40.771,40.771
	c-0.085,0-0.169-0.006-0.256-0.006v40.292c0,0,37.029,22.818,37.463,22.818h293.404c0.434,0,40.023-25.405,40.023-25.405v-37.705
	C441.358,296.765,441.274,296.771,441.189,296.771z"/>
<g>
	<path style="fill:#B3404A;" d="M401.422,374.097H108.018c-4.281,0-4.281,0-26.324-13.504c-9.327-5.716-18.6-11.429-18.6-11.429
		c-4.203-2.59-6.761-7.172-6.761-12.109v-40.292c0-7.854,6.367-14.222,14.222-14.222c0.1,0,0.255,0.003,0.393,0.006
		c14.576-0.074,26.411-11.954,26.411-26.547c0-14.588-11.827-26.465-26.398-26.547c-8.036,0.242-14.629-6.228-14.629-14.217V177.53
		c0-4.843,2.465-9.354,6.541-11.969c0,0,9.911-6.362,19.878-12.722c23.404-14.936,23.404-14.936,27.827-14.936h293.404
		c4.281,0,4.281,0,26.324,13.504c9.327,5.716,18.6,11.429,18.6,11.429c4.203,2.59,6.761,7.172,6.761,12.109v40.292
		c0,7.854-6.367,14.222-14.222,14.222c-0.1,0-0.255-0.003-0.393-0.006c-14.576,0.074-26.411,11.954-26.411,26.547
		c0,14.588,11.827,26.465,26.398,26.547c8.044-0.24,14.629,6.228,14.629,14.217v37.706c0,4.843-2.465,9.354-6.541,11.969
		c0,0-9.911,6.362-19.878,12.722C405.845,374.097,405.845,374.097,401.422,374.097z M111.846,345.653h285.605
		c5.484-3.438,17.593-11.157,29.771-18.958v-17.5c-23.58-6.195-41.025-27.698-41.025-53.194s17.445-46.999,41.025-53.194v-19.915
		c-11.072-6.81-21.985-13.487-27.068-16.543H114.549c-5.484,3.438-17.593,11.157-29.771,18.958v17.5
		c23.58,6.195,41.025,27.698,41.025,53.194s-17.445,46.999-41.025,53.194v19.915C95.849,335.919,106.763,342.598,111.846,345.653z"
		/>
	<path style="fill:#B3404A;" d="M497.778,429.511H14.222C6.367,429.511,0,423.142,0,415.289V96.711
		c0-7.854,6.367-14.222,14.222-14.222h483.556c7.855,0,14.222,6.369,14.222,14.222s-6.367,14.222-14.222,14.222H28.444v290.133
		h455.111V214.756c0-7.854,6.367-14.222,14.222-14.222S512,206.902,512,214.756v200.533
		C512,423.142,505.633,429.511,497.778,429.511z"/>
	<path style="fill:#B3404A;" d="M285.515,252.875c-4.291-2.968-12.002-6.049-22.942-9.163v-32.185
		c4.491,0.741,7.896,2.913,10.133,6.465c1.536,2.5,2.48,5.481,2.807,8.859c0.141,1.458,1.367,2.571,2.832,2.571h13.365
		c0.768,0,1.502-0.31,2.037-0.859s0.826-1.291,0.806-2.058c-0.242-9.375-3.406-17.087-9.404-22.919
		c-5.386-5.238-12.974-8.437-22.578-9.527v-7.481c0-1.57-1.274-2.844-2.844-2.844h-7.309c-1.57,0-2.844,1.274-2.844,2.844v7.492
		c-9.731,0.661-17.549,4.14-23.27,10.361c-6.165,6.713-9.291,14.434-9.291,22.953c0,9.54,2.988,17.124,8.868,22.529
		c5.222,4.87,13.185,8.486,23.694,10.765v36.358c-6.034-1.058-10.132-3.671-12.474-7.933c-1.094-1.998-2.506-6.074-3.021-14.143
		c-0.095-1.498-1.338-2.662-2.839-2.662h-13.497c-1.57,0-2.844,1.274-2.844,2.844c0,9.466,1.526,16.778,4.658,22.337
		c5.495,9.872,15.585,15.613,30.016,17.087v10.86c0,1.57,1.274,2.844,2.844,2.844h7.309c1.57,0,2.844-1.274,2.844-2.844v-10.965
		c8.441-1.168,15.137-3.318,19.937-6.407c9.761-6.322,14.669-16.91,14.588-31.452C297.098,266.18,293.203,258.199,285.515,252.875z
		 M262.574,263.982c5.082,1.631,7.761,3.071,9.156,4.059c3.961,2.806,5.885,6.822,5.885,12.278c0,3.556-0.74,6.62-2.266,9.378
		c-2.443,4.442-6.638,7.019-12.776,7.831V263.982z M236.498,226.503c0-3.588,1.23-6.999,3.75-10.406
		c1.89-2.524,5.02-4.11,9.328-4.729v29.399c-3.649-1.072-6.605-2.569-8.961-4.526C237.844,233.892,236.498,230.706,236.498,226.503z
		"/>
</g>
</svg>