<?xml version="1.0" encoding="utf-8"?><!-- Uploaded to: SVG Repo, www.svgrepo.com, Generator: SVG Repo Mixer Tools -->
<svg width="800px" height="800px" viewBox="0 0 36 36" xmlns="http://www.w3.org/2000/svg" xmlns:xlink="http://www.w3.org/1999/xlink" aria-hidden="true" role="img" class="iconify iconify--twemoji" preserveAspectRatio="xMidYMid meet"><path fill="#F4900C" d="M11 0a8 8 0 0 0-8 8v8h2V8a6 6 0 0 1 12 0v8h2V8a8 8 0 0 0-8-8z"></path><path fill="#DD2E44" d="M1 8l2 2l2-2l2 2l2-2l2 2l2-2l2 2l2-2l2 2l2-2v23H1z"></path><path fill="#FFCC4D" d="M25 5a8 8 0 0 0-8 8v8h2v-8a6 6 0 0 1 12 0v8h2v-8a8 8 0 0 0-8-8z"></path><path fill="#744EAA" d="M15 13l2 2l2-2l2 2l2-2l2 2l2-2l2 2l2-2l2 2l2-2v23H15z"></path></svg>